<?xml version="1.0" encoding="UTF-8"?>
<svg version="1.1" viewBox="0 0 28.747 28.747" xmlns="http://www.w3.org/2000/svg" xmlns:osb="http://www.openswatchbook.org/uri/2009/osb" xmlns:xlink="http://www.w3.org/1999/xlink">
    <defs>
        <filter id="filter6206-7" color-interpolation-filters="sRGB">
            <feGaussianBlur stdDeviation="0.658125"/>
        </filter>
    </defs>
    <g transform="translate(0 -1093.8)">
        <path transform="matrix(1.0781 0 0 1.0641 -.093733 2.7509)" d="m4.4177 1028.2v1.6051h-1.6052v18.192h1.6052v2.1402h18.192v-2.1402h2.1402v-18.192h-2.1402v-1.6051z" fill="#bf360c" filter="url(#filter6206-7)" opacity=".2"/>
        <rect x="2.9987" y="1096.8" width="22.749" height="22.749" rx="1.1973" ry="1.1974" fill="#ff6200"/>
        <g transform="translate(-22.32 1056.5)">
            <path d="m0 0h51.2v51.2h-51.2z" fill="none" stroke-width="1.0667"/>
            <g transform="matrix(.33601 0 0 .33601 1.5296 73.043)">
                <path d="m0 0h51.2v51.2h-51.2z" fill="none" stroke-width="1.0667"/>
            </g>
            <g transform="matrix(.37187 0 0 .37187 38.802 63.239)">
                <path d="m0 0h51.2v51.2h-51.2z" fill="none" stroke-width="1.0667"/>
                <g transform="matrix(2.6891 0 0 2.6891 -82.906 -48.45)">
                    <path d="m0 0h51.2v51.2h-51.2z" fill="none" stroke-width="1.0667"/>
                </g>
            </g>
        </g>
        <path d="m4.1958 1096.8c-0.66332 0-1.1979 0.5346-1.1979 1.1979v0.3334c0-0.6634 0.53459-1.1979 1.1979-1.1979h20.354c0.66332 0 1.1979 0.5345 1.1979 1.1979v-0.3334c0-0.6633-0.5346-1.1979-1.1979-1.1979z" fill="#fff" opacity=".2"/>
        <rect x="128" y="546.52" width="42.667" height="42.667" fill="none" stroke-width="1.0667"/>
        <rect x="128" y="631.85" width="42.667" height="42.667" fill="none" stroke-width="1.0667"/>
        <rect x="128" y="674.52" width="42.667" height="42.667" fill="none" stroke-width="1.0667"/>
        <rect x="128" y="589.19" width="42.667" height="42.667" fill="none" stroke-width="1.0667"/>
        <rect x="128" y="717.19" width="42.667" height="42.667" fill="none" stroke-width="1.0667"/>
        <rect x="213.33" y="546.52" width="42.667" height="42.667" fill="none" stroke-width="1.0667"/>
        <rect x="213.33" y="631.85" width="42.667" height="42.667" fill="none" stroke-width="1.0667"/>
        <rect x="213.33" y="674.52" width="42.667" height="42.667" fill="none" stroke-width="1.0667"/>
        <rect x="213.33" y="589.19" width="42.667" height="42.667" fill="none" stroke-width="1.0667"/>
        <rect x="213.33" y="717.19" width="42.667" height="42.667" fill="none" stroke-width="1.0667"/>
        <rect x="298.67" y="546.52" width="42.667" height="42.667" fill="none" stroke-width="1.0667"/>
        <rect x="298.67" y="631.85" width="42.667" height="42.667" fill="none" stroke-width="1.0667"/>
        <rect x="298.67" y="674.52" width="42.667" height="42.667" fill="none" stroke-width="1.0667"/>
        <rect x="298.67" y="589.19" width="42.667" height="42.667" fill="none" stroke-width="1.0667"/>
        <rect x="298.67" y="717.19" width="42.667" height="42.667" fill="none" stroke-width="1.0667"/>
        <rect x="170.67" y="546.52" width="42.667" height="42.667" fill="none" stroke-width="1.0667"/>
        <rect x="170.67" y="631.85" width="42.667" height="42.667" fill="none" stroke-width="1.0667"/>
        <rect x="170.67" y="674.52" width="42.667" height="42.667" fill="none" stroke-width="1.0667"/>
        <rect x="170.67" y="589.19" width="42.667" height="42.667" fill="none" stroke-width="1.0667"/>
        <rect x="170.67" y="717.19" width="42.667" height="42.667" fill="none" stroke-width="1.0667"/>
        <rect x="256" y="546.52" width="42.667" height="42.667" fill="none" stroke-width="1.0667"/>
        <rect x="256" y="631.85" width="42.667" height="42.667" fill="none" stroke-width="1.0667"/>
        <rect x="256" y="674.52" width="42.667" height="42.667" fill="none" stroke-width="1.0667"/>
        <rect x="256" y="589.19" width="42.667" height="42.667" fill="none" stroke-width="1.0667"/>
        <rect x="256" y="717.19" width="42.667" height="42.667" fill="none" stroke-width="1.0667"/>
        <rect x="128" y="759.85" width="42.667" height="42.667" fill="none" stroke-width="1.0667"/>
        <rect x="213.33" y="759.85" width="42.667" height="42.667" fill="none" stroke-width="1.0667"/>
        <rect x="298.67" y="759.85" width="42.667" height="42.667" fill="none" stroke-width="1.0667"/>
        <rect x="170.67" y="759.85" width="42.667" height="42.667" fill="none" stroke-width="1.0667"/>
        <rect x="256" y="759.85" width="42.667" height="42.667" fill="none" stroke-width="1.0667"/>
        <rect x="341.33" y="589.19" width="42.667" height="42.667" fill="none" stroke-width="1.0667"/>
        <rect x="341.33" y="631.85" width="42.667" height="42.667" fill="none" stroke-width="1.0667"/>
        <rect x="341.33" y="717.19" width="42.667" height="42.667" fill="none" stroke-width="1.0667"/>
        <rect x="341.33" y="546.52" width="42.667" height="42.667" fill="none" stroke-width="1.0667"/>
        <rect x="341.33" y="674.52" width="42.667" height="42.667" fill="none" stroke-width="1.0667"/>
        <rect x="341.33" y="759.85" width="42.667" height="42.667" fill="none" stroke-width="1.0667"/>
        <rect x="160" y="578.52" width="192" height="192" fill="none" stroke-width="1.0667"/>
        <g transform="matrix(.37344 0 0 .37344 4.7333 1097.4)">
            <path d="m0 0h51.2v51.2h-51.2z" fill="none" stroke-width="1.0667"/>
        </g>
        <g transform="matrix(.36471 0 0 .36471 5.1356 1097.4)">
            <path d="m0 0h51.2v51.2h-51.2z" fill="none" stroke-width="1.0667"/>
        </g>
        <g transform="matrix(.41585 0 0 .41585 84.325 1055.9)">
            <g transform="matrix(.062269 0 0 .062269 -28.238 185.29)">
                <g transform="matrix(38.618 0 0 38.618 14724 -13542)">
                    <g transform="matrix(.71436 0 0 .71436 -400.52 188.34)">
                        <path d="m1293.2-120.67c-181.75 0.2763-511.18 0.13525-699.05 0.13998-2.3216 10.413-3.593 21.251-3.593 32.384v114c207.65 0.73695 494.72 0.38136 706.23 0.3733v-114.37c0-11.18-1.2522-22.07-3.593-32.523zm-458.69 295.56c-78.385-4e-3 -158.85 0.17892-243.95 0.55995v138.63c286.34-0.39317 421.73-0.13827 706.23-0.32664v-137.75c-163.2-0.53005-311.22-1.1113-462.28-1.1199z" opacity="0" stroke-width="1.4932"/>
                    </g>
                </g>
            </g>
        </g>
        <path d="m24.549 1119.5c0.66325 0 1.1979-0.5346 1.1979-1.1979v-0.3333c0 0.6632-0.53461 1.1978-1.1979 1.1978h-20.354c-0.66325 0-1.1979-0.5346-1.1979-1.1978v0.3333c0 0.6633 0.53461 1.1979 1.1979 1.1979z" fill="#bf360c" opacity=".2"/>
    </g>
    <g>
        <flowRoot fill="#000000" font-family="Roboto" font-size="12.8px" letter-spacing="0px" stroke-width="1.0667px" word-spacing="0px" style="line-height:0.01%" xml:space="preserve"><flowRegion><rect x="11.375" y="11.984" width="4.7893" height="5.388" stroke-width="1.1378px"/></flowRegion><flowPara font-size="4px" style="line-height:1.25">your</flowPara></flowRoot>
        <path d="m10.828 8.2627 0.90598 0.41984 0.7292-0.92808 2.0329-1.2816 2.7179 1.5247 0.53033-1.1049 0.88388 0.17678 0.17678 1.1932 2.1189-0.43948 1.028-1.028 2.2227 0.58359 1.1049-0.61872-2.4528-1.4363-1.3037 0.81759-0.13258-0.86179-0.81759-0.24307-0.28726 1.5026-0.59662 0.37565-0.13258-0.97227 0.46404-0.53033-1.0607 0.15468-0.83969 0.41984-1.0165-0.44194-0.44194 1.1049-1.7457-1.3258-2.1876 0.66291-1.1711 1.1049z" fill="#fff"/>
        <path d="m10.783 8.8372 0.95017-0.15468-0.41984 1.9224 0.68501 1.2595-2.1213 1.6573-0.19887-1.4363 0.97227-0.66291-0.19887-1.8783z" fill="#fff"/>
        <path d="m9.7227 13.743 2.276-0.50823-0.0221 0.92808-2.1655 1.5026-0.22097-1.2374z" fill="#fff"/>
        <path d="m8.9714 16.814 0.28726 1.7457 1.5689-1.6794 0.81759-0.41984 0.24307-1.127-1.5468 0.53033z" fill="#fff"/>
        <path d="m9.2587 19.068 1.2374-0.61872-0.26516 1.37 0.41984 1.37-0.86179 1.127-0.41984-1.4142z" fill="#fff"/>
        <path d="m9.8332 22.692 0.22097 0.44194 0.06629 0.92808 1.4363-1.4142-0.66291-0.86179z" fill="#fff"/>
        <path d="m10.032 24.615 0.55243 1.1932h0.46404l1.0607-1.2374-0.46404-0.68501z" fill="#fff"/>
        <path d="m12.971 21.742-0.37565 0.7513 0.28726 1.1932 1.2374 0.70711-0.53033-1.4805 0.22097-0.59662z" fill="#fff"/>
        <path d="m14.849 22.493-0.22097 0.92808 0.55243 0.64082 0.24307 0.83969 0.46404-1.0607-0.22097-0.97227z" fill="#fff"/>
        <path d="m16.462 24.438 0.19887 0.81759 0.57452 0.61872h0.86179l-0.26516-0.7955 0.08839-0.44194-0.39775-0.30936-0.7955-0.13258z" fill="#fff"/>
        <path d="m18.694 24.283-0.04419 0.90598 0.19887 0.64082h0.68501s0.35355-0.55243 0.35355-0.64082c0-0.08839-0.0221-1.1711-0.0221-1.1711z" fill="#fff"/>
        <path d="m20.528 24.195 0.06629 1.4584 0.24307 0.11048 0.95017 0.04419-0.26516-0.66291-0.06629-1.4584z" fill="#fff"/>
        <path d="m22.34 23.311-0.0221 1.2153 0.59662 1.0165h0.83969l-0.41984-1.149v-0.7734z" fill="#fff"/>
        <path d="m23.821 22.803 0.46404 1.127 0.95018 0.19887 0.06629-0.22097-0.59662-0.88388z" fill="#fff"/>
        <path d="m16.308 20.571 0.59662 1.149 0.7513-0.50823 0.06629 1.2153 0.83969 0.11049 0.24307-0.70711 0.55243 0.64082 0.68501-0.15468 0.19887-0.88388 0.7955 0.70711 0.41984-0.88388 0.08839-0.92808-1.3037-0.44194h-2.4086z" fill="#fff"/>
        <path d="m14.032 12.041-0.95017-0.39775-0.61872-1.2153-0.0221-0.86179 0.50823-0.90598 0.95018-0.53033 1.2595 0.11049 1.2374 0.7292 0.39775 0.81759 1.4584 0.022097 0.7292 0.39775 1.4142-0.55243 0.86179-0.044194 0.39775-1.1711 1.2595-0.48614 1.1711 0.24307 0.95018 1.1049 0.13258 1.127-0.15468 1.2595-0.70711 0.55243-0.46404 2.2981 0.70711-0.24307-0.28726 1.1049-0.50823 0.44194-0.55243 1.1049-0.59662 0.41984 0.11048 0.28726 1.2153 0.04419 1.2816 0.48614-0.0442 0.66291-2.3202-0.7513-0.04419 0.7513 2.3644 1.2374 0.06629 0.64082-2.7621-1.3037-0.53033 0.64082-1.5689-0.88388-0.70711-0.17678-0.24307-0.86179 0.50823-0.41984 0.22097-0.59662 0.50823 0.19887 0.22097-0.41984-0.22097-0.57452-1.5247-0.28726-1.7457 0.44194 0.28726 0.88388 0.46404-0.33146 0.19887 0.68501 0.64082 0.41984-0.30936 0.92808-2.497 0.83969-0.53033-0.64082-3.4913 1.7678-0.24307-0.68501 3.2041-1.6794-0.06629-0.53033-1.7899 0.33146-1.6573 0.66291-0.13258-0.7513 2.2097-0.88388 1.3479 0.0221 0.0221-0.30936-1.1711-1.591-0.39775-1.0386 0.66291 0.15468-0.33146-1.4363z" fill="#fff"/>
        <path d="m14.385 11.4 1.591-1.3479-0.33146-0.7292-0.83969-0.39775-1.1711 0.39775-0.30936 0.99437z" fill="#ff6200"/>
        <path d="m22.097 10.053 0.48614-1.0386 1.0386-0.17678 0.83969 0.68501-0.11049 1.2595-0.55243 0.48614z" fill="#ff6200"/>
        <path d="m16.617 11.864 0.64082-0.68501 1.0165-0.35355v0.46404l-0.59662 0.64082z" fill="#ff6200"/>
        <path d="m19.711 10.826 0.7513 0.66291-0.11048 0.41984 1.127-0.0221 0.35355-0.41984-0.44194-0.35355z" fill="#ff6200"/>
        <path d="m14.982 12.77 2.497-0.04419 0.24307 0.33146-0.15468 2.74-0.7734 0.37565v0.41984l-0.7955 0.44194-0.30936-0.46404 0.35355-0.7734 0.81759-0.39775 0.13258-1.4363-1.0165 0.06629z" fill="#ff6200"/>
        <path d="m20.197 13.058 0.24307 2.497 0.57452 0.24307 0.15468 0.59662 1.1711 0.57452 0.37565-0.64082-1.127-0.68501-0.59662-0.70711-0.13258-1.3921 0.08839 0.30936 0.86179 0.08839 0.68501-0.48614 0.66291-0.68501-2.6296-0.08839z" fill="#ff6200"/>
        <path d="m15.822 18.074 1.149-0.04419-0.88388 0.64082z" fill="#ff6200"/>
        <path d="m20.882 18.14 0.22097-0.28726 1.0386 0.19887-0.11049 0.55243z" fill="#ff6200"/>
        <text x="4.4636116" y="19.112337" fill="#000000" font-family="sans-serif" font-size="40px" letter-spacing="0px" word-spacing="0px" style="line-height:1.25" xml:space="preserve"><tspan x="4.4636116" y="19.112337" fill="#ffffff" font-size="2.6667px" font-weight="bold">NL</tspan></text>
    </g>
    <g display="none" fill="none">
        <rect transform="rotate(90)" x="7.8232" y="-20.923" width="13.1" height="13.1" display="inline" stroke="#000" stroke-width=".070382"/>
        <rect x="7.2241" y="8.6528" width="14.298" height="11.441" stroke="#5261ff" stroke-linecap="round" stroke-linejoin="round" stroke-width=".069589"/>
        <rect transform="rotate(90)" x="7.2241" y="-20.094" width="14.298" height="11.441" display="inline" stroke="#0f0" stroke-linecap="round" stroke-linejoin="round" stroke-width=".069589"/>
    </g>
</svg>
